<svg id="Isolation_Mode" data-name="Isolation Mode" xmlns="http://www.w3.org/2000/svg" viewBox="0 0 201.75 221.31"><defs><style>.cls-1{fill:none;stroke:#122055;stroke-miterlimit:10;stroke-width:2px;}</style></defs><path class="cls-1" d="M109,45.68l.21-.14a21.75,21.75,0,0,0,8.68-11.93c9-30-13.49-32.61-15-32.61h-4c-1.5,0-24,2.58-15,32.61a21.7,21.7,0,0,0,8.68,11.93,27,27,0,0,0,6.09,1.89A13.55,13.55,0,0,0,109,45.68Z"/><path class="cls-1" d="M100.87,91.21h36.85a4.28,4.28,0,0,0,4.15-5.31l-2.56-10.23a15.09,15.09,0,0,0-7.89-9.83L117.6,58.92A5.41,5.41,0,0,0,111,60.39L100.87,73.12,90.78,60.39a5.39,5.39,0,0,0-6.63-1.47L70.32,65.84a15.1,15.1,0,0,0-7.88,9.83L59.88,85.9A4.28,4.28,0,0,0,64,91.21Z"/><path class="cls-1" d="M50.25,174.77l.21-.13a21.75,21.75,0,0,0,8.68-11.93c9-30-13.49-32.61-15-32.61h-4c-1.5,0-24,2.58-15,32.61a21.7,21.7,0,0,0,8.68,11.93,26.86,26.86,0,0,0,6.09,1.89A13.51,13.51,0,0,0,50.25,174.77Z"/><path class="cls-1" d="M42.12,220.31H79A4.28,4.28,0,0,0,83.12,215l-2.56-10.23a15.07,15.07,0,0,0-7.89-9.83L58.85,188a5.41,5.41,0,0,0-6.64,1.47L42.12,202.21,32,189.49A5.39,5.39,0,0,0,25.4,188l-13.83,6.92a15.05,15.05,0,0,0-7.88,9.83L1.13,215a4.27,4.27,0,0,0,4.15,5.31Z"/><path class="cls-1" d="M167.75,174.77l.21-.13a21.75,21.75,0,0,0,8.68-11.93c9-30-13.49-32.61-15-32.61H157.6c-1.5,0-24,2.58-15,32.61a21.7,21.7,0,0,0,8.68,11.93,27,27,0,0,0,6.09,1.89A13.51,13.51,0,0,0,167.75,174.77Z"/><path class="cls-1" d="M159.62,220.31h36.85a4.28,4.28,0,0,0,4.15-5.31l-2.56-10.23a15.07,15.07,0,0,0-7.89-9.83L176.35,188a5.41,5.41,0,0,0-6.64,1.47l-10.09,12.72-10.09-12.72A5.39,5.39,0,0,0,142.9,188l-13.83,6.92a15.08,15.08,0,0,0-7.88,9.83L118.63,215a4.28,4.28,0,0,0,4.15,5.31Z"/><polyline class="cls-1" points="42.12 123.5 42.12 113.76 100.87 113.76 159.62 113.76 159.62 123.5"/><line class="cls-1" x1="100.87" y1="100.95" x2="100.87" y2="113.76"/></svg>