<svg id="Isolation_Mode" data-name="Isolation Mode" xmlns="http://www.w3.org/2000/svg" viewBox="0 0 288.31 269.03"><defs><style>.cls-1,.cls-2{fill:none;}.cls-1,.cls-2,.cls-3{stroke:#122055;stroke-miterlimit:10;}.cls-1,.cls-3{stroke-width:3px;}.cls-2{stroke-width:5px;}.cls-3{fill:#fff;}.cls-4{fill:#122055;}</style></defs><path class="cls-1" d="M34.28,106.73H229.15a0,0,0,0,1,0,0v68.38a18.74,18.74,0,0,1-18.74,18.74H53a18.74,18.74,0,0,1-18.74-18.74V106.73A0,0,0,0,1,34.28,106.73Z"/><path class="cls-2" d="M112.61,12.3h38.22a14.81,14.81,0,0,1,14.81,14.81V46.89a0,0,0,0,1,0,0H97.8a0,0,0,0,1,0,0V27.11A14.81,14.81,0,0,1,112.61,12.3Z"/><path class="cls-3" d="M238.3,104.09,131.05,140.66,25.14,104.09V60.73A13.84,13.84,0,0,1,39,46.89H224.46A13.84,13.84,0,0,1,238.3,60.73Z"/><rect class="cls-3" x="115.76" y="128.07" width="31.92" height="19.62"/><rect class="cls-4" x="122.41" y="134.8" width="18.62" height="6.15"/></svg>