<?xml version="1.0" encoding="utf-8"?>
<!-- Generator: Adobe Illustrator 25.2.3, SVG Export Plug-In . SVG Version: 6.00 Build 0)  -->
<svg version="1.1" id="Layer_1" xmlns="http://www.w3.org/2000/svg" xmlns:xlink="http://www.w3.org/1999/xlink" x="0px" y="0px"
	 viewBox="0 0 135.7 191.4" style="enable-background:new 0 0 135.7 191.4;" xml:space="preserve">
<style type="text/css">
	.st0{fill:#182055;}
	.st1{fill:none;stroke:#3EB7D3;stroke-width:3;stroke-miterlimit:10;}
	.st2{fill:#FFFFFF;}
</style>
<g>
	<g>
		<polygon class="st2" points="21.2,159 37.2,61.7 96,61.7 114.5,159 		"/>
		<path class="st0" d="M116.3,160.5H19.4L35.9,60.2h61.4L116.3,160.5z M23,157.5h89.7L94.8,63.2H38.4L23,157.5z"/>
	</g>
	<g>
		<rect x="35" y="79.6" class="st0" width="65.7" height="3"/>
	</g>
	<g>
		<rect x="23.8" y="141.9" class="st0" width="88.2" height="3"/>
	</g>
	<g>
		<path class="st2" d="M111.7,159H23.9c-12.4,0-22.4,10-22.4,22.4v8.5h132.7v-8.5C134.2,169,124.1,159,111.7,159z"/>
		<path class="st0" d="M135.7,191.4H0v-10c0-13.2,10.7-23.9,23.9-23.9h87.8c13.2,0,23.9,10.7,23.9,23.9V191.4z M3,188.4h129.7v-7
			c0-11.5-9.4-20.9-20.9-20.9H23.9c-11.5,0-20.9,9.4-20.9,20.9V188.4z"/>
	</g>
	<g>
		<path class="st2" d="M10.6,1.5v23.9c0,17.4,11.8,32,27.8,36.3c3.2,0.9,6.5,1.3,9.9,1.3h39.1c20.8,0,37.6-16.9,37.6-37.6V1.5h-23.9
			v26.6H83.5V1.5H55.2v26.6h-17V1.5H10.6z"/>
		<path class="st0" d="M87.4,64.5H48.3c-3.5,0-6.9-0.5-10.3-1.4C21,58.5,9.1,43,9.1,25.4V0h30.6v26.6h14V0H85v26.6h14.6V0h26.9v25.4
			C126.5,47,109,64.5,87.4,64.5z M12.1,3v22.4c0,16.3,11,30.6,26.7,34.9c3.1,0.8,6.3,1.3,9.5,1.3h39.1c19.9,0,36.1-16.2,36.1-36.1V3
			h-20.9v26.6H82V3H56.7v26.6h-20V3H12.1z"/>
	</g>
</g>
</svg>
