<?xml version="1.0" encoding="utf-8"?>
<!-- Generator: Adobe Illustrator 25.2.3, SVG Export Plug-In . SVG Version: 6.00 Build 0)  -->
<svg version="1.1" id="Layer_1" xmlns="http://www.w3.org/2000/svg" xmlns:xlink="http://www.w3.org/1999/xlink" x="0px" y="0px"
	 viewBox="0 0 155 137.6" style="enable-background:new 0 0 155 137.6;" xml:space="preserve">
<style type="text/css">
	.st0{fill:#182055;}
	.st1{fill:none;stroke:#3EB7D3;stroke-width:3;stroke-miterlimit:10;}
	.st2{fill:#FFFFFF;}
</style>
<g>
	<g>
		<polygon class="st0" points="12.1,127.5 9.2,126.5 37.1,50.4 63.9,101.6 90.6,29.2 117.3,79.8 142.9,10.1 145.7,11.2 117.8,87.2 
			91.1,36.5 64.4,108.9 37.6,57.8 		"/>
	</g>
	<g>
		<circle class="st2" cx="10.6" cy="127" r="9.1"/>
		<path class="st0" d="M10.6,137.6C4.8,137.6,0,132.9,0,127c0-5.9,4.8-10.6,10.6-10.6s10.6,4.8,10.6,10.6
			C21.3,132.9,16.5,137.6,10.6,137.6z M10.6,119.3c-4.2,0-7.6,3.4-7.6,7.6s3.4,7.6,7.6,7.6s7.6-3.4,7.6-7.6S14.9,119.3,10.6,119.3z"
			/>
	</g>
	<g>
		<circle class="st2" cx="37.4" cy="54.1" r="9.1"/>
		<path class="st0" d="M37.4,64.8c-5.9,0-10.6-4.8-10.6-10.6s4.8-10.6,10.6-10.6S48,48.2,48,54.1S43.3,64.8,37.4,64.8z M37.4,46.5
			c-4.2,0-7.6,3.4-7.6,7.6s3.4,7.6,7.6,7.6s7.6-3.4,7.6-7.6S41.6,46.5,37.4,46.5z"/>
	</g>
	<g>
		<circle class="st2" cx="64.1" cy="105.3" r="9.1"/>
		<path class="st0" d="M64.1,115.9c-5.9,0-10.6-4.8-10.6-10.6c0-5.9,4.8-10.6,10.6-10.6s10.6,4.8,10.6,10.6
			C74.8,111.1,70,115.9,64.1,115.9z M64.1,97.6c-4.2,0-7.6,3.4-7.6,7.6s3.4,7.6,7.6,7.6s7.6-3.4,7.6-7.6S68.3,97.6,64.1,97.6z"/>
	</g>
	<g>
		<circle class="st2" cx="90.9" cy="32.8" r="9.1"/>
		<path class="st0" d="M90.9,43.5c-5.9,0-10.6-4.8-10.6-10.6S85,22.2,90.9,22.2s10.6,4.8,10.6,10.6S96.7,43.5,90.9,43.5z M90.9,25.2
			c-4.2,0-7.6,3.4-7.6,7.6s3.4,7.6,7.6,7.6s7.6-3.4,7.6-7.6S95.1,25.2,90.9,25.2z"/>
	</g>
	<g>
		<circle class="st2" cx="117.6" cy="83.5" r="9.1"/>
		<path class="st0" d="M117.6,94.2c-5.9,0-10.6-4.8-10.6-10.6c0-5.9,4.8-10.6,10.6-10.6s10.6,4.8,10.6,10.6
			C128.2,89.4,123.5,94.2,117.6,94.2z M117.6,75.9c-4.2,0-7.6,3.4-7.6,7.6s3.4,7.6,7.6,7.6s7.6-3.4,7.6-7.6S121.8,75.9,117.6,75.9z"
			/>
	</g>
	<g>
		<circle class="st2" cx="144.3" cy="10.6" r="9.1"/>
		<path class="st0" d="M144.3,21.3c-5.9,0-10.6-4.8-10.6-10.6S138.5,0,144.3,0S155,4.8,155,10.6S150.2,21.3,144.3,21.3z M144.3,3
			c-4.2,0-7.6,3.4-7.6,7.6s3.4,7.6,7.6,7.6s7.6-3.4,7.6-7.6S148.5,3,144.3,3z"/>
	</g>
</g>
</svg>
