<svg id="Isolation_Mode" data-name="Isolation Mode" xmlns="http://www.w3.org/2000/svg" viewBox="0 0 199.34 204.4"><defs><style>.cls-1{fill:none;}.cls-1,.cls-2,.cls-3{stroke:#122055;stroke-miterlimit:10;}.cls-1,.cls-3{stroke-width:2px;}.cls-2,.cls-3{fill:#fff;}.cls-2{stroke-linecap:round;stroke-width:3px;}</style></defs><rect class="cls-1" x="29.04" y="17.83" width="125.01" height="168.73" rx="4.95" transform="translate(51.4 -29) rotate(24.84)"/><line class="cls-1" x1="77.78" y1="38.6" x2="149.95" y2="70.86"/><line class="cls-1" x1="61.04" y1="76.05" x2="116.4" y2="100.79"/><line class="cls-1" x1="53.14" y1="93.74" x2="99.19" y2="114.32"/><line class="cls-1" x1="43.88" y1="111.95" x2="81.76" y2="128.88"/><line class="cls-1" x1="35.31" y1="131.12" x2="73.19" y2="148.05"/><line class="cls-2" x1="85.01" y1="149.46" x2="81.42" y2="151.54"/><path class="cls-3" d="M192.18,87.47l-13.3-18L92.34,131.75A9.67,9.67,0,0,0,89,135.92l-4.32,10.4A3.38,3.38,0,0,0,87.83,151h11a9.71,9.71,0,0,0,5.61-1.78Z"/><path class="cls-3" d="M181.26,72.73l11.62-8a2.19,2.19,0,0,1,3.28,1l2,5.27a2.2,2.2,0,0,1-.85,2.63L187,80.43Z"/><path class="cls-3" d="M147.42,120l5.43,2.52a7.9,7.9,0,0,0,7.78-.65l26.15-18a8.75,8.75,0,0,0,3.66-5.68l1.74-9.72"/><line class="cls-3" x1="122.23" y1="110.25" x2="135.24" y2="127.56"/></svg>