<?xml version="1.0" encoding="utf-8"?>
<!-- Generator: Adobe Illustrator 25.4.1, SVG Export Plug-In . SVG Version: 6.00 Build 0)  -->
<svg version="1.1" id="Isolation_Mode" xmlns="http://www.w3.org/2000/svg" xmlns:xlink="http://www.w3.org/1999/xlink" x="0px"
	 y="0px" viewBox="0 0 202.7 211.1" style="enable-background:new 0 0 202.7 211.1;" xml:space="preserve">
<style type="text/css">
	.st0{fill:none;stroke:#122055;stroke-width:2;stroke-miterlimit:10;}
</style>
<path class="st0" d="M34.8,63.3l3.5-34.7c0.4-4.5-2.9-8.5-7.4-8.9c-0.3,0-0.5,0-0.8,0l0,0c-3.6,0-6.8,2.4-7.9,5.9L2.5,96
	c-2.1,7.4-2,15.4,0.3,22.7c3.6,11.4,12,29.7,31,54.7l45.1-5.8l-1.8-20.3c-0.5-5.3-2.9-10.3-6.8-13.9l-16-15c-2.2-2-3.6-4.8-4.1-7.7
	l-6.5-40c-0.8-4.5-5-7.5-9.6-6.9l0,0c-4.4,0.6-7.7,4.5-7.4,9l2.7,49.3"/>
<rect x="21.5" y="170.4" transform="matrix(0.992 -0.1264 0.1264 0.992 -23.2717 8.9144)" class="st0" width="74.3" height="35"/>
<path class="st0" d="M167.9,63.3l-3.5-34.7c-0.4-4.5,2.9-8.5,7.4-8.9c0.3,0,0.5,0,0.8,0l0,0c3.6,0,6.8,2.4,7.9,5.9L200.2,96
	c2.1,7.4,2,15.4-0.3,22.7c-3.6,11.4-12,29.7-31,54.7l-45.1-5.8l1.8-20.3c0.5-5.3,2.9-10.3,6.8-13.9l16-15c2.2-2,3.6-4.8,4.1-7.7
	l6.5-40c0.8-4.5,5.1-7.5,9.6-6.9l0,0c4.4,0.6,7.7,4.5,7.4,9l-2.7,49.3"/>
<rect x="126.6" y="150.8" transform="matrix(0.1264 -0.992 0.992 0.1264 -60.5187 307.0546)" class="st0" width="35" height="74.3"/>
<path class="st0" d="M101.4,24c0,0,3.1-4.2,8.6-7.9c20.4-13.8,45.5,8.1,35.2,30.4c-0.2,0.4-0.4,0.8-0.6,1.3c-1.5,3.1-3.6,5.9-6,8.5
	l-37.2,39.6h-0.1L64.1,56.2c-2.4-2.5-4.4-5.4-6-8.5c-0.2-0.4-0.4-0.8-0.6-1.3C47.2,24.2,72.4,2.3,92.7,16
	C98.2,19.7,101.3,24,101.4,24"/>
<polyline class="st0" points="50.8,53.5 84.3,53.5 91.9,37.7 103.1,69.8 111.6,37.7 116.7,53.7 123.6,43 131.3,53.7 151.9,53.7 "/>
</svg>
