<?xml version="1.0" encoding="utf-8"?>
<!-- Generator: Adobe Illustrator 25.2.3, SVG Export Plug-In . SVG Version: 6.00 Build 0)  -->
<svg version="1.1" id="Layer_1" xmlns="http://www.w3.org/2000/svg" xmlns:xlink="http://www.w3.org/1999/xlink" x="0px" y="0px"
	 viewBox="0 0 122.6 122.2" style="enable-background:new 0 0 122.6 122.2;" xml:space="preserve">
<style type="text/css">
	.st0{fill:#182055;}
	.st1{fill:none;stroke:#3EB7D3;stroke-width:3;stroke-miterlimit:10;}
	.st2{fill:#FFFFFF;}
</style>
<g>
	<g>
		<path class="st0" d="M42.3,84.6C19,84.6,0,65.6,0,42.3C0,19,19,0,42.3,0c23.3,0,42.3,19,42.3,42.3C84.6,65.6,65.6,84.6,42.3,84.6z
			 M42.3,3C20.6,3,3,20.6,3,42.3C3,64,20.6,81.6,42.3,81.6C64,81.6,81.6,64,81.6,42.3C81.6,20.6,64,3,42.3,3z"/>
	</g>
	<g>
		<path class="st0" d="M17.7,42.3L17.7,42.3c0-13.7,11.1-24.7,24.6-24.7v3c-11.9,0-21.6,9.7-21.6,21.6L17.7,42.3z"/>
	</g>
	<g>
		<path class="st0" d="M108.7,122.2c-3.6,0-7.1-1.4-9.8-4.1L69.2,88.4l2-0.9c3.6-1.6,6.9-3.9,9.7-6.7c2.9-2.9,5.3-6.3,7-10.1l0.9-2
			l29.7,29.7c5.4,5.4,5.4,14.2,0,19.6l0,0C115.8,120.8,112.2,122.2,108.7,122.2z M74.4,89.3L101,116c4.2,4.2,11.1,4.2,15.4,0
			c2.1-2.1,3.2-4.8,3.2-7.7c0-2.9-1.1-5.6-3.2-7.7L89.7,74c-1.8,3.3-4,6.4-6.7,9C80.5,85.5,77.6,87.7,74.4,89.3z"/>
	</g>
</g>
</svg>
