<?xml version="1.0" encoding="utf-8"?>
<!-- Generator: Adobe Illustrator 18.0.0, SVG Export Plug-In . SVG Version: 6.00 Build 0)  -->
<!DOCTYPE svg PUBLIC "-//W3C//DTD SVG 1.1//EN" "http://www.w3.org/Graphics/SVG/1.1/DTD/svg11.dtd">
<svg version="1.1" id="Isolation_Mode" xmlns="http://www.w3.org/2000/svg" xmlns:xlink="http://www.w3.org/1999/xlink" x="0px"
	 y="0px" viewBox="609.8 856.8 85.7 85.2" enable-background="new 609.8 856.8 85.7 85.2" xml:space="preserve">
<path fill="#122055" d="M695.4,924.1c0.2,1.4-0.2,2.6-1.2,3.6l-12.1,11.9c-0.6,0.6-1.2,1.2-2.2,1.6c-0.8,0.4-1.8,0.6-2.6,0.8
	c0,0-0.2,0-0.6,0c-0.2,0-0.6,0-1.2,0c-1.2,0-3-0.2-5.6-0.6c-2.6-0.4-5.6-1.4-9.5-2.8c-3.6-1.6-7.9-3.8-12.5-6.9
	c-4.6-3-9.7-7.3-14.9-12.7c-4.2-4.2-7.7-8.1-10.5-11.9c-2.8-3.8-5-7.3-6.6-10.5c-1.6-3.2-3-6-3.8-8.7c-0.8-2.6-1.4-4.8-1.8-6.9
	c-0.2-1.8-0.4-3.4-0.4-4.4s0-1.6,0-1.8c0.2-0.8,0.4-1.6,0.8-2.6c0.4-0.8,1-1.6,1.6-2.2l12.1-12.1c0.8-0.8,1.8-1.2,2.8-1.2
	c0.8,0,1.4,0.2,2,0.6c0.6,0.4,1.2,1,1.6,1.6l9.7,18.3c0.6,1,0.6,2,0.4,3.2c-0.2,1.2-0.8,2-1.6,2.8l-4.4,4.4
	c-0.2,0.2-0.2,0.4-0.4,0.6c0,0.2-0.2,0.4-0.2,0.6c0.2,1.2,0.8,2.6,1.6,4.2c0.8,1.4,1.8,3.2,3.4,5.2c1.4,2,3.6,4.4,6.4,7.3
	c2.6,2.8,5,4.8,7.3,6.4c2,1.6,3.8,2.6,5.2,3.4s2.4,1.2,3.2,1.2l1.2,0.2c0.2,0,0.4,0,0.6-0.2c0.2,0,0.4-0.2,0.6-0.4l5.2-5.2
	c1-1,2.4-1.4,3.8-1.4c1,0,1.8,0.2,2.4,0.6l0,0l17.3,10.3C694.4,922.1,695.2,922.9,695.4,924.1z"/>
</svg>
